<?xml version="1.0" standalone="no"?>
<!DOCTYPE svg PUBLIC "-//W3C//DTD SVG 20010904//EN"
 "http://www.w3.org/TR/2001/REC-SVG-20010904/DTD/svg10.dtd">
<svg version="1.0" xmlns="http://www.w3.org/2000/svg"
 width="500.000000pt" height="500.000000pt" viewBox="0 0 500.000000 500.000000"
 preserveAspectRatio="xMidYMid meet">

<g transform="translate(0.000000,500.000000) scale(0.100000,-0.100000)"
fill="#000000" stroke="none">
<path d="M2918 4653 c-14 -2 -31 -10 -37 -16 -5 -7 -27 -80 -49 -163 -22 -83
-47 -162 -56 -177 -24 -35 -17 -76 17 -101 24 -17 42 -21 110 -20 198 1 307
85 307 239 0 75 -24 128 -78 177 -52 47 -143 73 -214 61z m140 -39 c143 -59
178 -260 63 -357 -66 -55 -256 -82 -314 -44 -30 20 -35 52 -12 77 9 9 33 85
54 168 21 83 42 155 45 161 11 16 121 13 164 -5z"/>
<path d="M2946 4552 c-12 -42 -48 -253 -43 -258 7 -7 82 12 130 33 91 39 89
160 -4 208 -61 32 -78 35 -83 17z m118 -74 c20 -28 20 -61 1 -98 -11 -22 -28
-33 -67 -45 -79 -23 -77 -26 -56 83 10 53 20 103 23 110 6 17 78 -19 99 -50z"/>
<path d="M1848 4569 c-22 -12 -24 -62 -4 -79 21 -16 56 -9 72 15 28 42 -24 91
-68 64z m47 -39 c0 -16 -6 -26 -18 -28 -19 -4 -32 20 -23 44 9 25 41 13 41
-16z"/>
<path d="M2427 4516 c-35 -24 -36 -24 -53 -5 -41 45 -83 2 -85 -86 l-1 -50
-15 55 c-8 30 -21 63 -30 72 -22 25 -113 34 -150 14 -47 -24 -90 -80 -98 -127
l-7 -42 -17 49 c-13 40 -21 50 -42 52 -44 5 -53 -18 -43 -111 l9 -83 -34 23
c-18 12 -55 26 -82 29 -76 10 -73 24 6 36 33 5 33 61 -1 87 -73 58 -199 -21
-199 -126 0 -36 5 -49 28 -68 15 -13 43 -27 62 -31 34 -6 34 -6 14 -23 -50
-40 -11 -111 60 -111 47 0 128 50 144 89 11 26 14 28 32 15 25 -19 50 -18 70
3 14 13 16 28 12 70 l-6 53 30 -30 c35 -34 90 -48 132 -32 28 11 29 10 22 -16
-4 -15 -26 -48 -51 -74 -24 -26 -44 -52 -44 -58 0 -17 47 -60 66 -60 32 0 86
33 109 68 14 20 30 59 36 88 11 50 13 53 39 47 31 -6 70 11 70 30 0 23 60 138
69 133 4 -3 11 -28 15 -56 15 -114 113 -125 123 -14 7 71 -12 132 -57 176 -45
46 -81 49 -133 14z m118 -29 c63 -63 73 -215 14 -217 -23 0 -40 33 -50 103
l-12 78 -25 -23 c-14 -13 -40 -56 -59 -96 -37 -78 -50 -90 -82 -72 -19 10 -21
19 -20 103 1 105 9 142 29 142 8 0 21 -13 28 -28 l14 -29 26 25 c62 56 92 59
137 14z m-318 0 c16 -16 54 -186 55 -247 2 -62 -17 -111 -55 -147 -43 -41 -69
-48 -97 -25 l-23 19 40 44 c51 56 63 79 63 123 l0 35 -35 -20 c-45 -27 -91
-20 -128 19 -53 56 -44 128 26 188 40 34 45 35 92 29 28 -3 56 -12 62 -18z
m-455 -74 c10 -9 18 -24 18 -35 0 -14 -8 -18 -34 -18 -26 0 -40 -7 -56 -27
l-22 -28 29 -6 c15 -4 49 -10 75 -14 78 -10 119 -68 88 -125 -14 -26 -91 -70
-121 -70 -37 0 -61 22 -57 51 2 19 13 27 51 38 69 21 60 37 -25 43 -63 5 -75
9 -96 33 -18 22 -22 35 -18 59 8 42 36 78 77 98 43 22 67 23 91 1z m183 -35
c31 -107 40 -165 26 -182 -17 -20 -26 -20 -44 -1 -16 15 -44 206 -32 224 15
25 35 9 50 -41z"/>
<path d="M2121 4416 c-27 -28 -26 -79 1 -84 21 -4 58 51 58 86 0 30 -30 29
-59 -2z m23 -44 c-16 -23 -19 -24 -22 -9 -2 10 4 27 14 39 25 27 31 5 8 -30z"/>
<path d="M3316 4400 c-63 -20 -136 -118 -136 -185 0 -105 138 -197 200 -135
26 26 25 36 -3 64 l-22 22 46 0 c65 -1 99 30 99 89 0 92 -100 170 -184 145z
m104 -42 c60 -47 78 -118 39 -154 -22 -20 -86 -22 -133 -4 -27 10 -46 6 -46
-8 0 -4 20 -20 45 -35 51 -33 60 -63 20 -73 -56 -14 -133 47 -142 113 -12 90
94 204 172 185 11 -3 31 -14 45 -24z"/>
<path d="M3326 4301 c-9 -10 -14 -21 -9 -23 21 -12 104 -30 110 -24 12 11 -33
61 -59 64 -14 2 -31 -5 -42 -17z m59 -11 c3 -5 -1 -10 -9 -10 -8 0 -18 5 -21
10 -3 6 1 10 9 10 8 0 18 -4 21 -10z"/>
<path d="M1394 4295 c-18 -8 -41 -26 -53 -41 -45 -58 -12 -215 54 -258 37 -24
94 -31 139 -16 39 13 86 61 86 90 0 30 -30 53 -61 46 l-27 -5 24 26 c46 50 43
108 -8 146 -34 25 -112 31 -154 12z m153 -40 c35 -41 29 -63 -33 -122 -64 -60
-56 -77 21 -47 34 13 49 14 57 6 36 -36 -69 -110 -137 -98 -40 8 -81 45 -101
91 -19 46 -18 125 2 154 40 56 149 66 191 16z"/>
<path d="M1440 4227 c-19 -9 -26 -22 -28 -51 l-3 -38 45 31 c43 30 62 49 55
55 -14 12 -48 14 -69 3z m14 -31 c-21 -15 -30 -14 -19 3 3 6 14 11 23 11 13 0
13 -2 -4 -14z"/>
<path d="M3555 4221 c-102 -47 -142 -161 -83 -236 28 -36 92 -65 146 -65 37 0
42 -3 42 -22 1 -52 45 -76 95 -52 20 9 37 15 38 13 2 -2 8 -35 14 -72 6 -37
17 -75 23 -82 16 -20 65 -19 84 1 21 20 20 39 -4 109 -11 32 -20 60 -20 62 0
1 24 3 53 3 58 0 77 12 77 47 0 27 -21 37 -93 48 -26 4 -47 10 -47 12 0 3 22
35 48 72 27 36 52 75 56 85 11 32 -3 56 -32 56 -21 0 -53 -26 -146 -119 -110
-111 -119 -118 -136 -102 -9 9 -38 28 -63 43 -56 33 -60 55 -16 93 39 32 82
31 87 -2 5 -33 42 -41 64 -13 27 34 23 77 -11 111 -25 25 -37 29 -83 29 -30 0
-70 -8 -93 -19z m160 -26 c28 -27 32 -66 10 -85 -13 -11 -17 -8 -26 19 -10 27
-15 31 -50 31 -50 0 -109 -48 -109 -89 0 -31 15 -47 78 -81 50 -28 55 -50 11
-50 -128 0 -198 100 -138 196 48 78 173 111 224 59z m249 -37 c-3 -13 -35 -61
-70 -108 l-63 -85 62 -7 c92 -11 109 -16 105 -36 -3 -14 -16 -18 -71 -20 -52
-2 -68 -6 -64 -16 48 -125 50 -176 6 -176 -25 0 -36 25 -44 100 -10 95 -9 94
-54 70 -51 -25 -78 -25 -86 0 -10 31 10 57 133 183 113 113 162 145 146 95z"/>
<path d="M1029 4186 c-53 -19 -107 -63 -135 -112 -31 -52 -33 -47 86 -198 48
-61 91 -122 95 -136 12 -41 35 -60 72 -60 27 0 43 10 82 48 97 97 139 249 92
339 -54 106 -182 158 -292 119z m141 -16 c48 -13 106 -63 131 -113 43 -83 7
-214 -86 -310 -61 -64 -95 -65 -119 -4 -9 23 -57 93 -106 156 -50 63 -90 123
-90 134 0 32 57 94 112 121 55 28 101 32 158 16z"/>
<path d="M1021 4067 c-23 -13 -43 -28 -43 -33 0 -5 40 -55 88 -111 l89 -102
33 67 c36 74 39 100 17 142 -33 64 -106 78 -184 37z m144 -21 c13 -13 27 -35
30 -48 7 -26 -25 -120 -42 -125 -10 -4 -143 141 -143 156 0 13 64 40 98 40 22
1 41 -7 57 -23z"/>
<path d="M3005 3368 c-22 -5 -148 -13 -280 -18 -151 -5 -270 -14 -320 -24 -57
-11 -134 -16 -271 -16 -139 0 -204 -4 -240 -15 -38 -11 -74 -13 -149 -7 -149
11 -191 3 -231 -40 -25 -28 -45 -39 -86 -47 -125 -26 -144 -63 -134 -261 6
-129 37 -327 58 -377 21 -50 78 -121 113 -143 58 -36 72 -26 104 68 16 46 31
85 33 88 3 2 3 -56 0 -129 -9 -270 44 -394 211 -491 53 -31 51 -21 16 -151
-28 -105 -53 -164 -75 -179 -41 -28 -192 -84 -243 -91 -145 -17 -224 -129
-189 -266 13 -50 12 -62 -4 -125 -18 -72 -25 -128 -32 -251 -3 -39 -12 -96
-21 -125 -17 -52 -20 -55 -69 -72 -65 -23 -118 -78 -136 -140 -18 -65 -4 -96
44 -96 19 0 37 -4 40 -9 3 -5 58 -12 121 -16 l115 -7 0 -48 c0 -40 4 -52 26
-69 43 -34 90 -40 269 -38 166 3 171 4 223 32 65 35 77 56 97 171 58 328 64
348 105 337 25 -7 45 -43 64 -115 28 -105 54 -143 105 -159 20 -5 92 -13 161
-16 117 -5 127 -4 163 17 62 37 70 67 36 137 -16 32 -33 50 -68 68 -52 26 -55
24 72 54 48 12 110 30 137 40 l48 18 73 -210 72 -210 46 -20 c41 -18 60 -19
205 -14 236 7 287 35 257 142 -22 81 -96 145 -168 145 l-43 0 0 168 c0 161 1
170 29 242 55 142 65 340 24 505 -21 84 -24 222 -5 233 208 118 282 177 304
240 8 23 13 89 13 179 l0 141 26 -5 c47 -9 54 14 58 194 4 199 -14 447 -37
516 -16 47 -22 53 -107 105 -175 107 -175 106 -207 94 -25 -9 -36 -7 -86 24
-83 49 -176 64 -267 42z m216 -73 c55 -28 156 -121 179 -165 7 -14 -20 6 -62
46 -41 39 -101 84 -133 99 -51 25 -69 29 -149 28 -50 0 -102 -3 -116 -7 -21
-6 -22 -5 -7 4 59 38 209 35 288 -5z m-862 -40 c51 -9 101 -20 110 -26 13 -8
11 -9 -9 -5 -77 15 -303 28 -425 23 -77 -3 -135 -3 -129 -1 63 26 316 31 453
9z m-631 -147 c-36 -128 -36 -129 -37 -37 -1 88 7 109 40 109 17 0 16 -5 -3
-72z m1833 40 c38 -28 69 -78 69 -109 -1 -22 -3 -21 -19 10 -10 19 -38 54 -62
78 -46 46 -39 58 12 21z m-471 -32 c-78 -22 -141 -58 -201 -114 -77 -70 -77
-50 0 27 65 65 138 100 206 100 l40 -1 -45 -12z m-747 -50 c64 -15 92 -32 37
-23 -19 4 -111 10 -205 14 -184 8 -184 20 0 22 62 0 135 -5 168 -13z m862 -5
c23 -10 54 -33 69 -52 91 -107 125 -340 61 -405 -13 -13 -31 -24 -40 -24 -19
0 -19 -1 5 51 26 59 27 168 1 226 -27 59 -93 119 -152 138 -28 10 -52 15 -54
13 -3 -2 7 -26 20 -53 38 -73 30 -125 -17 -125 -49 0 -137 68 -157 121 -8 22
-6 30 12 47 35 31 73 53 119 67 59 19 86 18 133 -4z m-1097 -62 c-24 -14 -23
-29 3 -29 27 0 96 -68 105 -104 9 -39 -18 -63 -86 -76 -60 -11 -102 -6 -138
16 -20 13 -23 13 -28 -1 -7 -18 1 -138 11 -175 7 -24 6 -24 -20 5 -51 58 -70
112 -70 205 0 110 21 152 81 161 70 11 161 10 142 -2z m370 -22 c6 -7 15 -32
21 -56 l9 -43 -35 41 c-19 23 -44 48 -56 56 -21 15 -20 15 15 15 19 0 40 -6
46 -13z m-214 -222 c7 -19 -20 -46 -39 -39 -21 8 -26 32 -9 48 16 17 40 12 48
-9z m548 -27 c58 -25 69 -41 108 -162 20 -62 39 -101 53 -111 16 -11 50 -15
134 -15 61 0 136 -5 164 -11 75 -16 135 -75 194 -193 52 -103 66 -171 43 -205
-26 -36 -122 -106 -210 -151 -94 -48 -141 -88 -169 -142 -13 -25 -44 -54 -96
-89 -85 -58 -276 -152 -344 -170 -99 -27 -182 12 -343 160 -49 46 -110 96
-134 113 -25 17 -62 48 -83 69 -22 22 -91 64 -171 104 -233 117 -273 161 -248
278 24 116 111 219 235 278 106 50 182 62 301 47 91 -12 93 -12 131 14 22 14
60 57 86 96 26 38 56 77 65 86 44 39 196 42 284 4z m391 8 c7 -19 -18 -40 -38
-32 -8 3 -15 15 -15 26 0 14 7 20 24 20 13 0 26 -6 29 -14z m-1282 -948 c-23
-114 -74 -204 -134 -234 l-32 -16 37 38 c47 50 79 110 108 206 13 43 26 76 28
73 3 -2 -1 -33 -7 -67z m-512 -538 c-17 -53 -30 -117 -34 -170 -7 -93 -35
-274 -41 -267 -3 2 2 81 10 175 15 165 34 250 73 325 25 49 22 26 -8 -63z
m1718 -94 c-60 -121 -157 -196 -352 -273 -118 -47 -212 -65 -294 -58 -68 6
-268 49 -279 59 -2 3 8 12 23 22 22 15 62 19 243 25 120 4 228 11 242 14 77
21 162 51 215 78 63 31 172 129 207 184 36 59 33 26 -5 -51z m-1537 -269 c0
-77 -2 -80 -85 -125 -18 -10 -18 -11 -2 -12 10 0 17 -3 15 -7 -2 -5 -20 -42
-41 -83 -20 -41 -37 -86 -37 -99 0 -14 -10 -39 -22 -57 -18 -26 -31 -33 -69
-38 -58 -8 -79 0 -79 29 0 19 7 23 49 29 38 5 55 13 75 37 22 26 56 112 56
142 0 18 125 264 133 260 4 -2 7 -37 7 -76z m1319 -49 c40 -159 88 -304 120
-360 11 -21 16 -38 10 -38 -29 0 -58 58 -119 238 -56 165 -63 194 -50 202 24
15 25 13 39 -42z m-925 -213 c-13 -83 -28 -170 -34 -195 -20 -85 -91 -123
-218 -118 -61 3 -67 5 -70 26 -3 21 0 22 52 22 78 0 128 22 154 68 11 21 34
85 50 142 38 134 74 221 88 208 1 -2 -8 -71 -22 -153z m252 97 c32 -79 70
-120 134 -143 l55 -19 -67 4 c-103 8 -128 29 -152 128 -8 29 -17 61 -21 72 -6
14 -4 17 11 14 12 -2 27 -22 40 -56z m-660 -55 c-20 -89 -24 -95 -64 -103 -24
-5 -32 -3 -32 7 1 21 37 97 73 154 39 61 46 44 23 -58z m-446 -159 c0 -27 -34
-19 -38 9 -3 17 1 20 17 16 12 -3 21 -14 21 -25z m98 -16 c3 -20 0 -23 -25
-20 -20 2 -29 9 -31 26 -3 20 0 23 25 20 20 -2 29 -9 31 -26z m232 -154 c0
-15 -3 -17 -19 -9 -21 12 -34 38 -25 53 9 14 44 -21 44 -44z m160 -2 c0 -21
-6 -24 -42 -28 -57 -6 -78 0 -78 22 0 21 17 27 78 29 38 1 42 -1 42 -23z"/>
<path d="M2564 2721 c-40 -24 -74 -80 -74 -119 0 -25 11 -40 56 -79 96 -82
106 -92 102 -115 -4 -27 -39 -36 -153 -40 -68 -2 -88 1 -135 23 -30 14 -79 47
-109 72 -55 48 -74 54 -101 37 -13 -8 -12 -11 5 -23 10 -8 28 -39 40 -68 40
-105 89 -181 163 -254 l74 -73 -12 -38 c-7 -22 -22 -57 -32 -78 -32 -63 -22
-141 28 -213 21 -32 52 -64 68 -72 72 -34 244 -22 315 24 70 44 123 142 136
250 12 108 22 131 68 162 32 22 53 49 87 114 57 108 59 111 76 105 19 -7 18
28 -1 44 -24 20 -95 5 -167 -35 -36 -19 -74 -35 -86 -35 -34 0 -179 49 -192
65 -9 11 -10 25 -4 48 7 25 17 34 44 42 19 6 54 29 79 52 38 37 43 46 38 73
-4 17 -21 53 -39 80 -28 43 -38 51 -81 60 -77 16 -158 13 -193 -9z m141 -57
c25 -10 0 -21 -35 -16 -17 2 -30 8 -30 13 0 10 41 12 65 3z m78 -823 c-40 -48
-146 -103 -204 -103 -76 -2 -130 51 -128 124 0 31 1 30 15 -15 16 -50 58 -87
100 -87 73 0 213 81 230 133 7 20 8 20 12 3 2 -10 -9 -34 -25 -55z"/>
<path d="M2950 2395 c0 -8 7 -15 15 -15 8 0 15 7 15 15 0 8 -7 15 -15 15 -8 0
-15 -7 -15 -15z"/>
<path d="M2870 2390 c0 -5 5 -10 10 -10 6 0 10 5 10 10 0 6 -4 10 -10 10 -5 0
-10 -4 -10 -10z"/>
</g>
</svg>
